<svg xmlns="http://www.w3.org/2000/svg" viewBox="0 0 566.929 440.088" role="img" aria-label="AdMoat">
  <path fill="#ffffff" fill-rule="nonzero" d="M460.165 1.322L358.461 324.496L256.757 1.322L154.239 1.322L44.238 370.699C41.737 379.85 38.121 389.201 33.401 398.726L33.401 398.726C28.676 408.261 23.606 416.173 18.186 422.466L18.186 422.466C12.769 428.755 7.424 432.289 2.145 433.046L2.145 433.046L2.145 438.767L133.827 438.767L133.808 432.762C119.911 432.003 109.841 425.039 103.592 411.884L103.592 411.884C97.339 398.728 96.715 383.954 101.715 367.556L101.715 367.556L150.49 202.312L200.126 373.561C205.683 392.248 206.311 406.833 202.002 417.315L202.002 417.315C197.695 427.808 189.289 433.046 176.786 433.046L176.786 433.046L175.122 433.046L175.122 438.767L329.707 438.767L445.573 71.678L466.001 395.426C466.835 403.057 465.646 409.725 462.459 415.444L462.459 415.444C459.26 421.165 455.164 425.554 450.162 428.6L450.162 428.6C445.156 431.658 440.292 433.178 435.574 433.178L435.574 433.178L435.574 438.767L564.784 438.767L564.784 433.178C557.284 433.178 549.708 429.942 542.072 423.453L542.072 423.453C534.42 416.975 529.906 407.251 528.521 394.28L528.521 394.28L507.266 47.652C506.704 35.069 509.485 25.156 515.603 17.909L515.603 17.909C521.707 10.669 529.214 7.042 538.11 7.042L538.11 7.042L538.11 1.322ZM159.785 7.176C170.894 7.833 180.102 12.049 187.358 19.911L187.358 19.911C190.341 23.141 193.072 26.966 195.678 31.087L195.678 31.087L181.128 79.948ZM326.32 434.215C325.039 434.175 323.759 434.132 322.48 434.054L322.48 434.054C317.826 433.773 313.211 433.292 308.834 431.759L308.834 431.759C305.65 430.643 302.662 429.094 299.916 427.249L299.916 427.249C296.804 425.16 293.998 422.7 291.462 420.038L291.462 420.038C288.499 416.929 285.894 413.542 283.558 410.015L283.558 410.015C280.806 405.866 278.419 401.518 276.287 397.073L276.287 397.073C273.791 391.865 271.646 386.517 269.743 381.103L269.743 381.103C268.536 377.66 267.426 374.19 266.4 370.699L266.4 370.699L183.86 89.263L199.247 37.136C202.133 42.524 204.797 48.442 207.156 55.088L207.156 55.088L212.992 71.105L328.271 434.246C327.84 434.206 327.136 434.21 326.695 434.214L326.695 434.214C326.582 434.215 326.486 434.216 326.417 434.216L326.417 434.216C326.374 434.216 326.341 434.215 326.32 434.215M45.965 408.469C42.934 401.251 44.876 391.757 51.327 367.841L51.327 367.841C51.331 367.831 125.52 116.161 125.52 116.161L125.52 116.161L147.628 192.437C147.628 192.437 94.687 370.208 94.628 370.414L94.628 370.414C88.821 389.906 83.723 415.868 67.513 420.2L67.513 420.2C66.019 420.599 64.524 420.792 63.053 420.792L63.053 420.792C55.838 420.792 49.191 416.151 45.965 408.469"/>
</svg>
